# xmcd
#
# Track frame offsets:
#	150
#	26833
#	50763
#	70903
#	92292
#	107435
#	127611
#	155984
#	177258
#	200741
#	222694
#	241615
#	266739
#	283030
#
# Disc length: 4102 seconds
#
# Revision: 0
# Processed by: cddbd v1.5.2PL0 Copyright (c) Steve Scherf et al.
# Submitted via: EasyCDDAExtractor 10.0.2.1
#
DISCID=cd10040e
DTITLE=Keith Urban - Love, Pain and the whole crazy thing
DYEAR=2006
DGENRE=Country
TTITLE0=Once In a Lifetime
TTITLE1=Shine
TTITLE2=I Told You So
TTITLE3=I Can't Stop Loving You
TTITLE4=Won't Let You Down
TTITLE5=Faster Car
TTITLE6=Stupid Boy
TTITLE7=Used to the Pain
TTITLE8=Raise the Barn
TTITLE9=God Made Woman
TTITLE10=Tu Compania
TTITLE11=Everybody
TTITLE12=Got It Right This Time
TTITLE13=Slow Turning (Bonus Track)
EXTD=
EXTT0=
EXTT1=
EXTT2=
EXTT3=
EXTT4=
EXTT5=
EXTT6=
EXTT7=
EXTT8=
EXTT9=
EXTT10=
EXTT11=
EXTT12=
EXTT13=
PLAYORDER=
